<?xml version="1.0" encoding="UTF-8" standalone="no"?>
<!DOCTYPE svg PUBLIC "-//W3C//DTD SVG 1.1//EN"
 "http://www.w3.org/Graphics/SVG/1.1/DTD/svg11.dtd">
<!-- Generated by graphviz version 7.1.0 (20230122.1345)
 -->
<!-- Title: A Pages: 1 -->
<svg width="764pt" height="728pt"
 viewBox="0.00 0.00 764.00 728.00" xmlns="http://www.w3.org/2000/svg" xmlns:xlink="http://www.w3.org/1999/xlink">
<g id="graph0" class="graph" transform="scale(1 1) rotate(0) translate(4 724)">
<title>A</title>
<polygon fill="white" stroke="none" points="-4,4 -4,-724 760,-724 760,4 -4,4"/>
<!-- Buckets -->
<g id="node1" class="node">
<title>Buckets</title>
<path fill="#f8e482" stroke="black" stroke-width="0" d="M174,-414C174,-414 12,-414 12,-414 6,-414 0,-408 0,-402 0,-402 0,-228 0,-228 0,-222 6,-216 12,-216 12,-216 174,-216 174,-216 180,-216 186,-222 186,-228 186,-228 186,-402 186,-402 186,-408 180,-414 174,-414"/>
<text text-anchor="start" x="68.5" y="-378.8" font-family="Helvetica,Arial,sans-serif" font-size="14.00" fill="#000000">Buckets</text>
<path fill="#eeba61" stroke="none" d="M29.67,-320C29.67,-320 156.33,-320 156.33,-320 162.17,-320 168,-325.83 168,-331.67 168,-331.67 168,-343.33 168,-343.33 168,-349.17 162.17,-355 156.33,-355 156.33,-355 29.67,-355 29.67,-355 23.83,-355 18,-349.17 18,-343.33 18,-343.33 18,-331.67 18,-331.67 18,-325.83 23.83,-320 29.67,-320"/>
<text text-anchor="start" x="67" y="-333.8" font-family="Helvetica,Arial,sans-serif" font-size="14.00" fill="#000000">Weather</text>
<path fill="#eeba61" stroke="none" d="M29.67,-275C29.67,-275 156.33,-275 156.33,-275 162.17,-275 168,-280.83 168,-286.67 168,-286.67 168,-298.33 168,-298.33 168,-304.17 162.17,-310 156.33,-310 156.33,-310 29.67,-310 29.67,-310 23.83,-310 18,-304.17 18,-298.33 18,-298.33 18,-286.67 18,-286.67 18,-280.83 23.83,-275 29.67,-275"/>
<text text-anchor="start" x="28" y="-288.8" font-family="Helvetica,Arial,sans-serif" font-size="14.00" fill="#000000">Energy 1hour integral</text>
<path fill="#eeba61" stroke="none" d="M29.67,-230C29.67,-230 156.33,-230 156.33,-230 162.17,-230 168,-235.83 168,-241.67 168,-241.67 168,-253.33 168,-253.33 168,-259.17 162.17,-265 156.33,-265 156.33,-265 29.67,-265 29.67,-265 23.83,-265 18,-259.17 18,-253.33 18,-253.33 18,-241.67 18,-241.67 18,-235.83 23.83,-230 29.67,-230"/>
<text text-anchor="start" x="42" y="-243.8" font-family="Helvetica,Arial,sans-serif" font-size="14.00" fill="#000000">Power 5 min avg</text>
</g>
<!-- Process -->
<g id="node2" class="node">
<title>Process</title>
<path fill="#f8e482" stroke="black" stroke-width="0" d="M401,-436.5C401,-436.5 234,-436.5 234,-436.5 228,-436.5 222,-430.5 222,-424.5 222,-424.5 222,-205.5 222,-205.5 222,-199.5 228,-193.5 234,-193.5 234,-193.5 401,-193.5 401,-193.5 407,-193.5 413,-199.5 413,-205.5 413,-205.5 413,-424.5 413,-424.5 413,-430.5 407,-436.5 401,-436.5"/>
<text text-anchor="start" x="293.5" y="-400.8" font-family="Helvetica,Arial,sans-serif" font-size="14.00" fill="#000000">Process</text>
<path fill="#eeba61" stroke="none" d="M252.17,-342C252.17,-342 383.83,-342 383.83,-342 389.67,-342 395.5,-347.83 395.5,-353.67 395.5,-353.67 395.5,-365.33 395.5,-365.33 395.5,-371.17 389.67,-377 383.83,-377 383.83,-377 252.17,-377 252.17,-377 246.33,-377 240.5,-371.17 240.5,-365.33 240.5,-365.33 240.5,-353.67 240.5,-353.67 240.5,-347.83 246.33,-342 252.17,-342"/>
<text text-anchor="start" x="274" y="-355.8" font-family="Helvetica,Arial,sans-serif" font-size="14.00" fill="#000000">MinMaxScalar</text>
<path fill="#eeba61" stroke="none" d="M252.17,-297C252.17,-297 383.83,-297 383.83,-297 389.67,-297 395.5,-302.83 395.5,-308.67 395.5,-308.67 395.5,-320.33 395.5,-320.33 395.5,-326.17 389.67,-332 383.83,-332 383.83,-332 252.17,-332 252.17,-332 246.33,-332 240.5,-326.17 240.5,-320.33 240.5,-320.33 240.5,-308.67 240.5,-308.67 240.5,-302.83 246.33,-297 252.17,-297"/>
<text text-anchor="start" x="250.5" y="-310.8" font-family="Helvetica,Arial,sans-serif" font-size="14.00" fill="#000000">Seasonal_decompose</text>
<path fill="#eeba61" stroke="none" d="M252.17,-252C252.17,-252 383.83,-252 383.83,-252 389.67,-252 395.5,-257.83 395.5,-263.67 395.5,-263.67 395.5,-275.33 395.5,-275.33 395.5,-281.17 389.67,-287 383.83,-287 383.83,-287 252.17,-287 252.17,-287 246.33,-287 240.5,-281.17 240.5,-275.33 240.5,-275.33 240.5,-263.67 240.5,-263.67 240.5,-257.83 246.33,-252 252.17,-252"/>
<text text-anchor="start" x="305.5" y="-265.8" font-family="Helvetica,Arial,sans-serif" font-size="14.00" fill="#000000">FFT</text>
<path fill="#eeba61" stroke="none" d="M252.17,-207C252.17,-207 383.83,-207 383.83,-207 389.67,-207 395.5,-212.83 395.5,-218.67 395.5,-218.67 395.5,-230.33 395.5,-230.33 395.5,-236.17 389.67,-242 383.83,-242 383.83,-242 252.17,-242 252.17,-242 246.33,-242 240.5,-236.17 240.5,-230.33 240.5,-230.33 240.5,-218.67 240.5,-218.67 240.5,-212.83 246.33,-207 252.17,-207"/>
<text text-anchor="start" x="258.5" y="-220.8" font-family="Helvetica,Arial,sans-serif" font-size="14.00" fill="#000000">Variable Correlation</text>
</g>
<!-- Buckets&#45;&gt;Process -->
<g id="edge1" class="edge">
<title>Buckets&#45;&gt;Process</title>
<path fill="none" stroke="#e59b3b" d="M185.78,-315C194.48,-315 203.34,-315 212.15,-315"/>
<polygon fill="#e59b3b" stroke="#e59b3b" points="222.05,-315 212.05,-319.5 217.05,-315 212.05,-315 212.05,-315 212.05,-315 217.05,-315 212.05,-310.5 222.05,-315 222.05,-315"/>
</g>
<!-- Stats -->
<g id="node3" class="node">
<title>Stats</title>
<path fill="#f8e482" stroke="black" stroke-width="0" d="M586.5,-720C586.5,-720 473.5,-720 473.5,-720 467.5,-720 461.5,-714 461.5,-708 461.5,-708 461.5,-444 461.5,-444 461.5,-438 467.5,-432 473.5,-432 473.5,-432 586.5,-432 586.5,-432 592.5,-432 598.5,-438 598.5,-444 598.5,-444 598.5,-708 598.5,-708 598.5,-714 592.5,-720 586.5,-720"/>
<text text-anchor="start" x="515" y="-684.8" font-family="Helvetica,Arial,sans-serif" font-size="14.00" fill="#000000">Stats</text>
<path fill="#eeba61" stroke="none" d="M491.67,-626C491.67,-626 569.33,-626 569.33,-626 575.17,-626 581,-631.83 581,-637.67 581,-637.67 581,-649.33 581,-649.33 581,-655.17 575.17,-661 569.33,-661 569.33,-661 491.67,-661 491.67,-661 485.83,-661 480,-655.17 480,-649.33 480,-649.33 480,-637.67 480,-637.67 480,-631.83 485.83,-626 491.67,-626"/>
<text text-anchor="start" x="518" y="-639.8" font-family="Helvetica,Arial,sans-serif" font-size="14.00" fill="#000000">FFT</text>
<path fill="#eeba61" stroke="none" d="M491.67,-581C491.67,-581 569.33,-581 569.33,-581 575.17,-581 581,-586.83 581,-592.67 581,-592.67 581,-604.33 581,-604.33 581,-610.17 575.17,-616 569.33,-616 569.33,-616 491.67,-616 491.67,-616 485.83,-616 480,-610.17 480,-604.33 480,-604.33 480,-592.67 480,-592.67 480,-586.83 485.83,-581 491.67,-581"/>
<text text-anchor="start" x="490" y="-594.8" font-family="Helvetica,Arial,sans-serif" font-size="14.00" fill="#000000">SeasonNaive</text>
<path fill="#eeba61" stroke="none" d="M491.67,-536C491.67,-536 569.33,-536 569.33,-536 575.17,-536 581,-541.83 581,-547.67 581,-547.67 581,-559.33 581,-559.33 581,-565.17 575.17,-571 569.33,-571 569.33,-571 491.67,-571 491.67,-571 485.83,-571 480,-565.17 480,-559.33 480,-559.33 480,-547.67 480,-547.67 480,-541.83 485.83,-536 491.67,-536"/>
<text text-anchor="start" x="494.5" y="-549.8" font-family="Helvetica,Arial,sans-serif" font-size="14.00" fill="#000000">AutoARIMA</text>
<path fill="#eeba61" stroke="none" d="M491.67,-491C491.67,-491 569.33,-491 569.33,-491 575.17,-491 581,-496.83 581,-502.67 581,-502.67 581,-514.33 581,-514.33 581,-520.17 575.17,-526 569.33,-526 569.33,-526 491.67,-526 491.67,-526 485.83,-526 480,-520.17 480,-514.33 480,-514.33 480,-502.67 480,-502.67 480,-496.83 485.83,-491 491.67,-491"/>
<text text-anchor="start" x="498.5" y="-504.8" font-family="Helvetica,Arial,sans-serif" font-size="14.00" fill="#000000">HaltWinter</text>
<path fill="#eeba61" stroke="none" d="M491.67,-446C491.67,-446 569.33,-446 569.33,-446 575.17,-446 581,-451.83 581,-457.67 581,-457.67 581,-469.33 581,-469.33 581,-475.17 575.17,-481 569.33,-481 569.33,-481 491.67,-481 491.67,-481 485.83,-481 480,-475.17 480,-469.33 480,-469.33 480,-457.67 480,-457.67 480,-451.83 485.83,-446 491.67,-446"/>
<text text-anchor="start" x="512" y="-459.8" font-family="Helvetica,Arial,sans-serif" font-size="14.00" fill="#000000">MSTL</text>
</g>
<!-- Process&#45;&gt;Stats -->
<g id="edge2" class="edge">
<title>Process&#45;&gt;Stats</title>
<path fill="none" stroke="#e59b3b" d="M412.97,-432.14C427.19,-449.77 441.67,-467.72 455.37,-484.7"/>
<polygon fill="#e59b3b" stroke="#e59b3b" points="461.6,-492.43 451.82,-487.47 458.46,-488.54 455.32,-484.65 455.32,-484.65 455.32,-484.65 458.46,-488.54 458.83,-481.82 461.6,-492.43 461.6,-492.43"/>
</g>
<!-- ML -->
<g id="node4" class="node">
<title>ML</title>
<path fill="#f8e482" stroke="black" stroke-width="0" d="M599,-414C599,-414 461,-414 461,-414 455,-414 449,-408 449,-402 449,-402 449,-228 449,-228 449,-222 455,-216 461,-216 461,-216 599,-216 599,-216 605,-216 611,-222 611,-228 611,-228 611,-402 611,-402 611,-408 605,-414 599,-414"/>
<text text-anchor="start" x="520" y="-378.8" font-family="Helvetica,Arial,sans-serif" font-size="14.00" fill="#000000">ML</text>
<path fill="#eeba61" stroke="none" d="M478.67,-320C478.67,-320 581.33,-320 581.33,-320 587.17,-320 593,-325.83 593,-331.67 593,-331.67 593,-343.33 593,-343.33 593,-349.17 587.17,-355 581.33,-355 581.33,-355 478.67,-355 478.67,-355 472.83,-355 467,-349.17 467,-343.33 467,-343.33 467,-331.67 467,-331.67 467,-325.83 472.83,-320 478.67,-320"/>
<text text-anchor="start" x="478" y="-333.8" font-family="Helvetica,Arial,sans-serif" font-size="14.00" fill="#000000">Linear Regressor</text>
<path fill="#eeba61" stroke="none" d="M478.67,-275C478.67,-275 581.33,-275 581.33,-275 587.17,-275 593,-280.83 593,-286.67 593,-286.67 593,-298.33 593,-298.33 593,-304.17 587.17,-310 581.33,-310 581.33,-310 478.67,-310 478.67,-310 472.83,-310 467,-304.17 467,-298.33 467,-298.33 467,-286.67 467,-286.67 467,-280.83 472.83,-275 478.67,-275"/>
<text text-anchor="start" x="477" y="-288.8" font-family="Helvetica,Arial,sans-serif" font-size="14.00" fill="#000000">LGBM Regressor</text>
<path fill="#eeba61" stroke="none" d="M478.67,-230C478.67,-230 581.33,-230 581.33,-230 587.17,-230 593,-235.83 593,-241.67 593,-241.67 593,-253.33 593,-253.33 593,-259.17 587.17,-265 581.33,-265 581.33,-265 478.67,-265 478.67,-265 472.83,-265 467,-259.17 467,-253.33 467,-253.33 467,-241.67 467,-241.67 467,-235.83 472.83,-230 478.67,-230"/>
<text text-anchor="start" x="482" y="-243.8" font-family="Helvetica,Arial,sans-serif" font-size="14.00" fill="#000000">XGB Regressor</text>
</g>
<!-- Process&#45;&gt;ML -->
<g id="edge3" class="edge">
<title>Process&#45;&gt;ML</title>
<path fill="none" stroke="#e59b3b" d="M412.97,-315C421.79,-315 430.71,-315 439.47,-315"/>
<polygon fill="#e59b3b" stroke="#e59b3b" points="449.3,-315 439.3,-319.5 444.3,-315 439.3,-315 439.3,-315 439.3,-315 444.3,-315 439.3,-310.5 449.3,-315 449.3,-315"/>
</g>
<!-- Neural -->
<g id="node5" class="node">
<title>Neural</title>
<path fill="#f8e482" stroke="black" stroke-width="0" d="M573,-198C573,-198 487,-198 487,-198 481,-198 475,-192 475,-186 475,-186 475,-12 475,-12 475,-6 481,0 487,0 487,0 573,0 573,0 579,0 585,-6 585,-12 585,-12 585,-186 585,-186 585,-192 579,-198 573,-198"/>
<text text-anchor="start" x="510" y="-162.8" font-family="Helvetica,Arial,sans-serif" font-size="14.00" fill="#000000">Neural</text>
<path fill="#eeba61" stroke="none" d="M504.67,-104C504.67,-104 555.33,-104 555.33,-104 561.17,-104 567,-109.83 567,-115.67 567,-115.67 567,-127.33 567,-127.33 567,-133.17 561.17,-139 555.33,-139 555.33,-139 504.67,-139 504.67,-139 498.83,-139 493,-133.17 493,-127.33 493,-127.33 493,-115.67 493,-115.67 493,-109.83 498.83,-104 504.67,-104"/>
<text text-anchor="start" x="515.5" y="-117.8" font-family="Helvetica,Arial,sans-serif" font-size="14.00" fill="#000000">MLP</text>
<path fill="#eeba61" stroke="none" d="M504.67,-59C504.67,-59 555.33,-59 555.33,-59 561.17,-59 567,-64.83 567,-70.67 567,-70.67 567,-82.33 567,-82.33 567,-88.17 561.17,-94 555.33,-94 555.33,-94 504.67,-94 504.67,-94 498.83,-94 493,-88.17 493,-82.33 493,-82.33 493,-70.67 493,-70.67 493,-64.83 498.83,-59 504.67,-59"/>
<text text-anchor="start" x="503" y="-72.8" font-family="Helvetica,Arial,sans-serif" font-size="14.00" fill="#000000">NBEATS</text>
<path fill="#eeba61" stroke="none" d="M504.67,-14C504.67,-14 555.33,-14 555.33,-14 561.17,-14 567,-19.83 567,-25.67 567,-25.67 567,-37.33 567,-37.33 567,-43.17 561.17,-49 555.33,-49 555.33,-49 504.67,-49 504.67,-49 498.83,-49 493,-43.17 493,-37.33 493,-37.33 493,-25.67 493,-25.67 493,-19.83 498.83,-14 504.67,-14"/>
<text text-anchor="start" x="509.5" y="-27.8" font-family="Helvetica,Arial,sans-serif" font-size="14.00" fill="#000000">NHITS</text>
</g>
<!-- Process&#45;&gt;Neural -->
<g id="edge4" class="edge">
<title>Process&#45;&gt;Neural</title>
<path fill="none" stroke="#e59b3b" d="M412.97,-218.06C431.79,-198.75 451.07,-178.97 468.37,-161.21"/>
<polygon fill="#e59b3b" stroke="#e59b3b" points="475.15,-154.25 471.4,-164.55 471.66,-157.83 468.18,-161.41 468.18,-161.41 468.18,-161.41 471.66,-157.83 464.95,-158.27 475.15,-154.25 475.15,-154.25"/>
</g>
<!-- Evaluate -->
<g id="node6" class="node">
<title>Evaluate</title>
<path fill="#f8e482" stroke="black" stroke-width="0" d="M744,-459C744,-459 659,-459 659,-459 653,-459 647,-453 647,-447 647,-447 647,-183 647,-183 647,-177 653,-171 659,-171 659,-171 744,-171 744,-171 750,-171 756,-177 756,-183 756,-183 756,-447 756,-447 756,-453 750,-459 744,-459"/>
<text text-anchor="start" x="675.5" y="-423.8" font-family="Helvetica,Arial,sans-serif" font-size="14.00" fill="#000000">Evaluate</text>
<path fill="#eeba61" stroke="none" d="M677.17,-365C677.17,-365 726.83,-365 726.83,-365 732.67,-365 738.5,-370.83 738.5,-376.67 738.5,-376.67 738.5,-388.33 738.5,-388.33 738.5,-394.17 732.67,-400 726.83,-400 726.83,-400 677.17,-400 677.17,-400 671.33,-400 665.5,-394.17 665.5,-388.33 665.5,-388.33 665.5,-376.67 665.5,-376.67 665.5,-370.83 671.33,-365 677.17,-365"/>
<text text-anchor="start" x="684.5" y="-378.8" font-family="Helvetica,Arial,sans-serif" font-size="14.00" fill="#000000">mape</text>
<path fill="#eeba61" stroke="none" d="M677.17,-320C677.17,-320 726.83,-320 726.83,-320 732.67,-320 738.5,-325.83 738.5,-331.67 738.5,-331.67 738.5,-343.33 738.5,-343.33 738.5,-349.17 732.67,-355 726.83,-355 726.83,-355 677.17,-355 677.17,-355 671.33,-355 665.5,-349.17 665.5,-343.33 665.5,-343.33 665.5,-331.67 665.5,-331.67 665.5,-325.83 671.33,-320 677.17,-320"/>
<text text-anchor="start" x="686.5" y="-333.8" font-family="Helvetica,Arial,sans-serif" font-size="14.00" fill="#000000">rmse</text>
<path fill="#eeba61" stroke="none" d="M677.17,-275C677.17,-275 726.83,-275 726.83,-275 732.67,-275 738.5,-280.83 738.5,-286.67 738.5,-286.67 738.5,-298.33 738.5,-298.33 738.5,-304.17 732.67,-310 726.83,-310 726.83,-310 677.17,-310 677.17,-310 671.33,-310 665.5,-304.17 665.5,-298.33 665.5,-298.33 665.5,-286.67 665.5,-286.67 665.5,-280.83 671.33,-275 677.17,-275"/>
<text text-anchor="start" x="681" y="-288.8" font-family="Helvetica,Arial,sans-serif" font-size="14.00" fill="#000000">smape</text>
<path fill="#eeba61" stroke="none" d="M677.17,-230C677.17,-230 726.83,-230 726.83,-230 732.67,-230 738.5,-235.83 738.5,-241.67 738.5,-241.67 738.5,-253.33 738.5,-253.33 738.5,-259.17 732.67,-265 726.83,-265 726.83,-265 677.17,-265 677.17,-265 671.33,-265 665.5,-259.17 665.5,-253.33 665.5,-253.33 665.5,-241.67 665.5,-241.67 665.5,-235.83 671.33,-230 677.17,-230"/>
<text text-anchor="start" x="685" y="-243.8" font-family="Helvetica,Arial,sans-serif" font-size="14.00" fill="#000000">mase</text>
<path fill="#eeba61" stroke="none" d="M677.17,-185C677.17,-185 726.83,-185 726.83,-185 732.67,-185 738.5,-190.83 738.5,-196.67 738.5,-196.67 738.5,-208.33 738.5,-208.33 738.5,-214.17 732.67,-220 726.83,-220 726.83,-220 677.17,-220 677.17,-220 671.33,-220 665.5,-214.17 665.5,-208.33 665.5,-208.33 665.5,-196.67 665.5,-196.67 665.5,-190.83 671.33,-185 677.17,-185"/>
<text text-anchor="start" x="688" y="-198.8" font-family="Helvetica,Arial,sans-serif" font-size="14.00" fill="#000000">mae</text>
</g>
<!-- Stats&#45;&gt;Evaluate -->
<g id="edge5" class="edge">
<title>Stats&#45;&gt;Evaluate</title>
<path fill="none" stroke="#e59b3b" d="M598.48,-472.1C612.8,-450.04 627.82,-426.92 641.79,-405.41"/>
<polygon fill="#e59b3b" stroke="#e59b3b" points="647.08,-397.25 645.41,-408.09 644.36,-401.44 641.64,-405.64 641.64,-405.64 641.64,-405.64 644.36,-401.44 637.86,-403.19 647.08,-397.25 647.08,-397.25"/>
</g>
<!-- ML&#45;&gt;Evaluate -->
<g id="edge6" class="edge">
<title>ML&#45;&gt;Evaluate</title>
<path fill="none" stroke="#e59b3b" d="M610.79,-315C619.67,-315 628.63,-315 637.27,-315"/>
<polygon fill="#e59b3b" stroke="#e59b3b" points="647.25,-315 637.25,-319.5 642.25,-315 637.25,-315 637.25,-315 637.25,-315 642.25,-315 637.25,-310.5 647.25,-315 647.25,-315"/>
</g>
<!-- Neural&#45;&gt;Evaluate -->
<g id="edge7" class="edge">
<title>Neural&#45;&gt;Evaluate</title>
<path fill="none" stroke="#e59b3b" d="M584.86,-167.64C602.72,-190.39 622.69,-215.84 640.95,-239.11"/>
<polygon fill="#e59b3b" stroke="#e59b3b" points="647.07,-246.91 637.35,-241.82 643.98,-242.97 640.89,-239.04 640.89,-239.04 640.89,-239.04 643.98,-242.97 644.43,-236.26 647.07,-246.91 647.07,-246.91"/>
</g>
</g>
</svg>
